<?xml version="1.0" encoding="UTF-8"?>
<svg id="Layer_1" data-name="Layer 1" xmlns="http://www.w3.org/2000/svg" viewBox="0 0 435.83 507.67">
  <defs>
    <style>
      .cls-1 {
        fill: #fff;
      }

      .cls-1, .cls-2 {
        stroke: #231f20;
        stroke-miterlimit: 10;
        stroke-width: 14px;
      }

      .cls-2 {
        fill: #ffae00;
      }
    </style>
  </defs>
  <path class="cls-2" d="M158.37,97.24l143.61,361.98c13.4,33.77,51.67,50.23,85.4,36.73h0c33.73-13.5,50.19-51.75,36.79-85.52L280.55,48.45C267.16,14.68,228.88-1.78,195.15,11.72h0c-33.73,13.5-50.19,51.75-36.79,85.52Z"/>
  <path class="cls-1" d="M283.83,336.01h-101.09l94.73-238.77c13.4-33.77-3.05-72.02-36.79-85.52-33.73-13.5-72,2.97-85.4,36.73L11.66,410.43c-13.4,33.77,3.05,72.02,36.79,85.52,33.73,13.5,72-2.97,85.4-36.73l3.82-9.64h146.15c31.36,0,56.78-25.42,56.78-56.78s-25.42-56.78-56.78-56.78Z"/>
</svg>