<?xml version="1.0" encoding="UTF-8"?>
<svg id="Layer_1" data-name="Layer 1" xmlns="http://www.w3.org/2000/svg" viewBox="0 0 415.5 430.83">
  <defs>
    <style>
      .cls-1 {
        fill: #fff;
      }

      .cls-1, .cls-2 {
        stroke: #231f20;
        stroke-miterlimit: 10;
        stroke-width: 14px;
      }

      .cls-2 {
        fill: #ffae00;
      }
    </style>
  </defs>
  <path class="cls-2" d="M151.07,83.19l136.69,305.64c12.75,28.51,49.18,42.41,81.28,31.02h0c32.11-11.4,47.77-43.69,35.02-72.21L267.37,42C254.62,13.49,218.19-.41,186.09,10.98h0c-32.11,11.4-47.77,43.69-35.02,72.21Z"/>
  <path class="cls-1" d="M270.48,284.81h-96.22l90.16-201.61c12.75-28.52-2.91-60.81-35.02-72.21-32.1-11.4-68.53,2.51-81.28,31.02L11.44,347.64c-12.75,28.52,2.91,60.81,35.02,72.21,32.1,11.4,68.53-2.51,81.28-31.02l3.64-8.14h139.11c29.85,0,54.05-21.47,54.05-47.95s-24.2-47.95-54.05-47.95Z"/>
</svg>